<?xml version="1.0" encoding="UTF-8"?>
<svg viewBox="0 0 24 24" xmlns="http://www.w3.org/2000/svg">
  <!-- Bolsa de basura -->
  <path d="M6 19c0 1.1.9 2 2 2h8c1.1 0 2-.9 2-2V7H6v12z" fill="#e53935" />
  <path d="M19 4h-3.5l-1-1h-5l-1 1H5v2h14V4z" fill="#e53935" />
  
  <!-- Cruz para indicar eliminar -->
  <path d="M10.5 10.5l3 3M13.5 10.5l-3 3" stroke="#ffffff" stroke-width="1.5" stroke-linecap="round" />
  
  <!-- Contorno para mejorar visibilidad -->
  <path d="M6 19c0 1.1.9 2 2 2h8c1.1 0 2-.9 2-2V7H6v12zM19 4h-3.5l-1-1h-5l-1 1H5v2h14V4z" fill="none" stroke="#c62828" stroke-width="0.5" />
</svg>
